<svg xmlns="http://www.w3.org/2000/svg" xmlns:xlink="http://www.w3.org/1999/xlink" width="50" zoomAndPan="magnify" viewBox="0 0 37.5 37.499999" height="50" preserveAspectRatio="xMidYMid meet" version="1.0"><defs><g/></defs><g fill="#000000" fill-opacity="1"><g transform="translate(5.311798, 22.750904)"><g><path d="M 0.890625 0 L 0.890625 -12.703125 L 3.5 -12.703125 L 3.5 0 Z M 0.890625 0 "/></g></g></g><g fill="#000000" fill-opacity="1"><g transform="translate(8.30838, 22.750904)"><g><path d="M 1.59375 -0.890625 C 0.757812 -1.640625 0.34375 -2.597656 0.34375 -3.765625 C 0.34375 -4.941406 0.78125 -5.90625 1.65625 -6.65625 C 2.53125 -7.414062 3.613281 -7.796875 4.90625 -7.796875 C 6.175781 -7.796875 7.242188 -7.414062 8.109375 -6.65625 C 8.984375 -5.894531 9.421875 -4.929688 9.421875 -3.765625 C 9.421875 -2.609375 8.992188 -1.65625 8.140625 -0.90625 C 7.285156 -0.15625 6.207031 0.21875 4.90625 0.21875 C 3.539062 0.21875 2.4375 -0.148438 1.59375 -0.890625 Z M 3.625 -5.0625 C 3.28125 -4.726562 3.109375 -4.300781 3.109375 -3.78125 C 3.109375 -3.257812 3.269531 -2.832031 3.59375 -2.5 C 3.925781 -2.175781 4.359375 -2.015625 4.890625 -2.015625 C 5.398438 -2.015625 5.816406 -2.179688 6.140625 -2.515625 C 6.472656 -2.847656 6.640625 -3.269531 6.640625 -3.78125 C 6.640625 -4.300781 6.46875 -4.726562 6.125 -5.0625 C 5.789062 -5.394531 5.378906 -5.5625 4.890625 -5.5625 C 4.390625 -5.5625 3.96875 -5.394531 3.625 -5.0625 Z M 3.625 -5.0625 "/></g></g></g><g fill="#000000" fill-opacity="1"><g transform="translate(16.678871, 22.750904)"><g><path d="M 0.546875 1.859375 L 2.6875 0.8125 C 3.082031 1.457031 3.765625 1.78125 4.734375 1.78125 C 5.191406 1.78125 5.613281 1.632812 6 1.34375 C 6.382812 1.0625 6.578125 0.617188 6.578125 0.015625 L 6.578125 -0.546875 C 6.117188 -0.0351562 5.296875 0.21875 4.109375 0.21875 C 3.015625 0.21875 2.113281 -0.164062 1.40625 -0.9375 C 0.695312 -1.707031 0.34375 -2.65625 0.34375 -3.78125 C 0.34375 -4.90625 0.695312 -5.851562 1.40625 -6.625 C 2.113281 -7.40625 3.015625 -7.796875 4.109375 -7.796875 C 5.078125 -7.796875 5.890625 -7.492188 6.546875 -6.890625 L 6.578125 -6.890625 L 6.578125 -7.578125 L 9.203125 -7.578125 L 9.203125 0.203125 C 9.203125 1.429688 8.789062 2.378906 7.96875 3.046875 C 7.15625 3.722656 6.078125 4.0625 4.734375 4.0625 C 2.566406 4.0625 1.171875 3.328125 0.546875 1.859375 Z M 3.625 -5.0625 C 3.28125 -4.726562 3.109375 -4.300781 3.109375 -3.78125 C 3.109375 -3.257812 3.269531 -2.832031 3.59375 -2.5 C 3.925781 -2.175781 4.359375 -2.015625 4.890625 -2.015625 C 5.398438 -2.015625 5.816406 -2.179688 6.140625 -2.515625 C 6.472656 -2.847656 6.640625 -3.269531 6.640625 -3.78125 C 6.640625 -4.300781 6.46875 -4.726562 6.125 -5.0625 C 5.789062 -5.394531 5.378906 -5.5625 4.890625 -5.5625 C 4.390625 -5.5625 3.96875 -5.394531 3.625 -5.0625 Z M 3.625 -5.0625 "/></g></g></g><g fill="#000000" fill-opacity="1"><g transform="translate(25.374159, 22.750904)"><g><path d="M 1.59375 -0.890625 C 0.757812 -1.640625 0.34375 -2.597656 0.34375 -3.765625 C 0.34375 -4.941406 0.78125 -5.90625 1.65625 -6.65625 C 2.53125 -7.414062 3.613281 -7.796875 4.90625 -7.796875 C 6.175781 -7.796875 7.242188 -7.414062 8.109375 -6.65625 C 8.984375 -5.894531 9.421875 -4.929688 9.421875 -3.765625 C 9.421875 -2.609375 8.992188 -1.65625 8.140625 -0.90625 C 7.285156 -0.15625 6.207031 0.21875 4.90625 0.21875 C 3.539062 0.21875 2.4375 -0.148438 1.59375 -0.890625 Z M 3.625 -5.0625 C 3.28125 -4.726562 3.109375 -4.300781 3.109375 -3.78125 C 3.109375 -3.257812 3.269531 -2.832031 3.59375 -2.5 C 3.925781 -2.175781 4.359375 -2.015625 4.890625 -2.015625 C 5.398438 -2.015625 5.816406 -2.179688 6.140625 -2.515625 C 6.472656 -2.847656 6.640625 -3.269531 6.640625 -3.78125 C 6.640625 -4.300781 6.46875 -4.726562 6.125 -5.0625 C 5.789062 -5.394531 5.378906 -5.5625 4.890625 -5.5625 C 4.390625 -5.5625 3.96875 -5.394531 3.625 -5.0625 Z M 3.625 -5.0625 "/></g></g></g></svg>